# xmcd
#
# Track frame offsets: 
#        150
#        1369
#        14457
#        35679
#        48403
#        66354
#        83754
#        105486
#        124578
#        133681
#        141170
#        160043
#        171801
#        182035
#        188278
#        191528
#        205798
#        221228
#        227725
#
# Disc length: 3263 seconds
#
# Revision: 0
# Processed by: cddbd v1.5.2PL0 Copyright (c) Steve Scherf et al.
# Submitted via: ExactAudioCopy v1.1
#
DISCID=020cbd13
DTITLE=Bill Kearns - Unstoppabull!
DYEAR=2006
DGENRE=
TTITLE0=Intro
TTITLE1=Global repercussions
TTITLE2=Bird flu
TTITLE3=Oh dear!
TTITLE4=The trend setter
TTITLE5=The door
TTITLE6=Entrapment
TTITLE7=The auction sale
TTITLE8=Kool
TTITLE9=Wallpapering
TTITLE10=Mistaken identity
TTITLE11=The genie
TTITLE12=Facelift
TTITLE13=The diagnosis
TTITLE14=Introducing Darren
TTITLE15=Matinee idol
TTITLE16=The dogfather
TTITLE17=The bride
TTITLE18=Cleavages.
EXTD=
EXTT0=
EXTT1=
EXTT2=
EXTT3=
EXTT4=
EXTT5=
EXTT6=
EXTT7=
EXTT8=
EXTT9=
EXTT10=
EXTT11=
EXTT12=
EXTT13=
EXTT14=
EXTT15=
EXTT16=
EXTT17=
EXTT18=
PLAYORDER=
